# xmcd CD database file
#
# Track frame offsets:
#	150
#	26883
#	45883
#	61449
#	79149
#	94241
#	124083
#	138574
#	155094
#	172428
#	186724
#	203364
#	220652
#	237350
#	257750
#
# Disc length: 3626 seconds
#
# Revision: 2
# Processed by: cddbd v1.4PL0 Copyright (c) Steve Scherf et al.
# Submitted via: CDex 1.50Beta5
#
DISCID=df0e280f
DTITLE=Le Soldat Inconnu - A travers vous
DYEAR=2000
DGENRE=Rock
TTITLE0=Lune dans l'autre
TTITLE1=Douceur de vivre
TTITLE2=Corinne
TTITLE3=Entre ciel et trottoir
TTITLE4=Goutte à goutte
TTITLE5=Warte auf mich
TTITLE6=Un bout de route
TTITLE7=Tu me manques déjà
TTITLE8=Chemin de solitude
TTITLE9=Personne ne t'oubliera
TTITLE10=Instant d'éternité
TTITLE11=Après la pluie
TTITLE12=Juste avec les yeux
TTITLE13=Lettre à un ami
TTITLE14=Un si joli pays
EXTD=YEAR: 2000
EXTT0=
EXTT1=
EXTT2=
EXTT3=
EXTT4=
EXTT5=
EXTT6=
EXTT7=
EXTT8=
EXTT9=
EXTT10=
EXTT11=
EXTT12=
EXTT13=
EXTT14=
PLAYORDER=
